<svg aria-hidden="true" style="position:absolute;width:0;height:0;overflow:hidden" xmlns="http://www.w3.org/2000/svg"><defs><symbol id="icon-envelope-hover" viewBox="0 0 43 32"><path fill="#2196f3" style="fill:var(--color1, #2196f3)" d="M38.667 0H4C1.795 0 0 1.795 0 4v24c0 2.205 1.795 4 4 4h34.667c2.205 0 4-1.795 4-4V4c0-2.205-1.795-4-4-4zm0 2.667c.181 0 .355.037.512.104L21.334 18.238 3.489 2.771c.151-.065.327-.104.512-.104h34.667zm0 26.666H4A1.333 1.333 0 0 1 2.667 28V5.587l17.792 15.421c.233.203.539.327.875.327s.642-.124.876-.328l-.002.001L40 5.587V28c0 .736-.597 1.333-1.333 1.333z"/></symbol>
<symbol id="icon-facebook" viewBox="0 0 32 32"><path d="M19 6h5V0h-5c-3.86 0-7 3.14-7 7v3H8v6h4v16h6V16h5l1-6h-6V7c0-.542.458-1 1-1z"/></symbol>
<symbol id="icon-instagram" viewBox="0 0 32 32"><path d="M16 2.881c4.275 0 4.781.019 6.462.094 1.563.069 2.406.331 2.969.55.72.27 1.334.677 1.836 1.193l.001.001a5.013 5.013 0 0 1 1.188 1.804l.012.034c.219.563.481 1.412.55 2.969.075 1.688.094 2.194.094 6.463s-.019 4.781-.094 6.463c-.069 1.563-.331 2.406-.55 2.969a4.976 4.976 0 0 1-1.193 1.836l-.001.001a5.023 5.023 0 0 1-1.803 1.188l-.034.012c-.563.219-1.413.481-2.969.55-1.688.075-2.194.094-6.463.094s-4.781-.019-6.463-.094c-1.563-.069-2.406-.331-2.969-.55a4.972 4.972 0 0 1-1.837-1.193l-.001-.001a5.023 5.023 0 0 1-1.188-1.803l-.012-.034c-.219-.563-.481-1.413-.55-2.969-.075-1.688-.094-2.194-.094-6.463s.019-4.781.094-6.463c.069-1.563.331-2.406.55-2.969a4.98 4.98 0 0 1 1.193-1.837l.001-.001a5.013 5.013 0 0 1 1.804-1.188l.034-.012c.563-.219 1.412-.481 2.969-.55 1.681-.075 2.188-.094 6.463-.094zM16 0c-4.344 0-4.887.019-6.594.094-1.7.075-2.869.35-3.881.744-1.056.412-1.95.956-2.837 1.85A7.856 7.856 0 0 0 .856 5.465l-.018.054C.444 6.538.169 7.7.094 9.4.019 11.113 0 11.656 0 16s.019 4.887.094 6.594c.075 1.7.35 2.869.744 3.881.413 1.056.956 1.95 1.85 2.837a7.822 7.822 0 0 0 2.778 1.826l.053.018c1.019.394 2.181.669 3.881.744 1.706.075 2.25.094 6.594.094s4.888-.019 6.594-.094c1.7-.075 2.869-.35 3.881-.744 1.05-.406 1.944-.956 2.831-1.844s1.438-1.781 1.844-2.831c.394-1.019.669-2.181.744-3.881.075-1.706.094-2.25.094-6.594s-.019-4.887-.094-6.594c-.075-1.7-.35-2.869-.744-3.881a7.547 7.547 0 0 0-1.829-2.842l-.002-.002A7.827 7.827 0 0 0 26.536.861l-.053-.018C25.464.449 24.302.174 22.602.099c-1.712-.081-2.256-.1-6.6-.1z"/><path d="M16 7.781c-4.537 0-8.219 3.681-8.219 8.219s3.681 8.219 8.219 8.219 8.219-3.681 8.219-8.219A8.22 8.22 0 0 0 16 7.781zm0 13.55a5.332 5.332 0 0 1 0-10.664 5.332 5.332 0 0 1-.001 10.664zM26.462 7.456a1.919 1.919 0 1 1-3.838 0 1.919 1.919 0 1 1 3.838 0z"/></symbol>
<symbol id="icon-linkedin" viewBox="0 0 32 32"><path d="M12 12h5.535v2.837h.079c.77-1.381 2.655-2.837 5.464-2.837C28.92 12 30 15.637 30 20.367V30h-5.769v-8.54c0-2.037-.042-4.657-3.001-4.657-3.005 0-3.463 2.218-3.463 4.509V30H12V12zM2 12h6v18H2V12zm6-5a3 3 0 1 1-6 0 3 3 0 1 1 6 0z"/></symbol>
<symbol id="icon-twitter" viewBox="0 0 32 32"><path d="M32 7.075A12.607 12.607 0 0 1 28.292 8.1l-.061.006a6.633 6.633 0 0 0 2.874-3.584l.013-.047a12.97 12.97 0 0 1-4.084 1.58l-.085.014A6.548 6.548 0 0 0 22.165 4h-.011.001a6.563 6.563 0 0 0-6.563 6.563c0 .512.056 1.012.169 1.494A18.621 18.621 0 0 1 2.256 5.228l-.026-.033a6.482 6.482 0 0 0-.887 3.294v.014a6.55 6.55 0 0 0 2.896 5.44l.023.015a6.55 6.55 0 0 1-3.008-.836l.033.017v.082a6.567 6.567 0 0 0 5.226 6.428l.043.007a6.624 6.624 0 0 1-3.01.105l.042.007c.867 2.627 3.272 4.501 6.124 4.563h.007a13.084 13.084 0 0 1-8.138 2.815 13.25 13.25 0 0 1-1.652-.103l.065.007C2.832 28.9 6.306 30 10.036 30h.028-.001c12.075 0 18.681-10.006 18.681-18.681 0-.287-.006-.569-.019-.85a13.337 13.337 0 0 0 3.245-3.347l.03-.047z"/></symbol>
<symbol id="icon-Vector-2-2" viewBox="0 0 30 32"><path d="m29.859 22.098-8.443-8.505.937-4.616c.225.09.485.144.758.146h.033a2.16 2.16 0 1 0-2.029-1.42l-.005-.015-4.96.606L8.059.161a.53.53 0 0 0-.376-.16.536.536 0 0 0-.373.155L5.798 1.66a.535.535 0 0 0 0 .754l.814.825c-1.143 2.062-1.816 4.522-1.816 7.139 0 4.106 1.656 7.824 4.336 10.525l-.001-.001a.49.49 0 0 0 .146.097 2.986 2.986 0 0 0-.052.546v6.188h-6.4a2.669 2.669 0 0 0-2.667 2.666v1.067c0 .295.239.534.534.534h24.534a.534.534 0 0 0 .533-.534v-1.067a2.67 2.67 0 0 0-2.666-2.666h-6.4v-2.742a14.784 14.784 0 0 0 10.166-1.502l-.077.039.818.823a.534.534 0 0 0 .376.16.536.536 0 0 0 .373-.155l1.512-1.504a.535.535 0 0 0 0-.754zM22.366 6.233a1.067 1.067 0 1 1 .752 1.822h-.004a1.066 1.066 0 0 1-.747-1.822h-.002zM21.11 9.737l-.598 2.946-1.175-1.183 1.774-1.763zm-.606-.902-1.92 1.909-1.486-1.493 3.406-.416zM23.09 28.8a1.6 1.6 0 0 1 1.6 1.6v.534H1.224V30.4a1.6 1.6 0 0 1 1.6-1.6h20.267zm-7.467-2.134v1.067h-5.334v-1.067h5.334zM10.29 25.6v-4.053c0-1.294 1.196-2.346 2.666-2.346s2.667 1.053 2.667 2.346V25.6H10.29zm6.4-1.696v-2.357c0-1.882-1.675-3.413-3.733-3.413h-.058c-1.353 0-2.54.707-3.213 1.771l-.009.016a13.817 13.817 0 0 1-3.812-9.55c0-2.314.567-4.496 1.569-6.414l-.036.077L26 22.743c-1.823.947-3.979 1.502-6.266 1.502-1.079 0-2.128-.124-3.136-.357l.093.018zm11.289-.684L6.922 2.039l.754-.752 7.935 7.98c.004 0 .006.007.01.01l13.115 13.191-.757.752z"/></symbol>
<symbol id="icon-Vector-3-2" viewBox="0 0 31 32"><path d="M30.839 15.301C30.838 6.849 23.984-.002 15.531 0S.228 6.855.23 15.308c.002 6.788 4.422 12.543 10.541 14.545l.108.031a.667.667 0 0 0 .529-.065.636.636 0 0 0 .283-.357l3.865-12.25a1.913 1.913 0 1 0-.852-3.63l.011-.005L9.609 8.47a.638.638 0 0 0-.902.902l5.103 5.109a1.873 1.873 0 0 0 .533 2.306l.004.003-3.683 11.673C3.386 25.782-.34 17.709 2.34 10.431S13.094-.573 20.372 2.108c7.278 2.681 11.004 10.754 8.323 18.032-1.345 3.581-4.003 6.406-7.374 7.938l-.088.036-.398-1.874a.639.639 0 0 0-1.05-.343l.001-.001-3.837 3.426a.637.637 0 0 0 .227 1.083l.005.001 4.899 1.563a.637.637 0 0 0 .818-.744l.001.004-.391-1.839c5.528-2.374 9.328-7.772 9.328-14.057v-.034.002zm-15.304-.637a.638.638 0 0 1 0 1.276.638.638 0 0 1 0-1.276zm2.1 14.864 2.184-1.948.603 2.84-2.787-.892z"/></symbol>
<symbol id="icon-Vector-4-2" viewBox="0 0 32 32"><path d="M1.599 28.291h25.586a1.6 1.6 0 0 0 1.599-1.599V24.56a1.6 1.6 0 0 0-1.599-1.599h-.533V9.667l3.028-2.868a1.608 1.608 0 1 0-.742-.752l-.004-.01-2.281 2.162v-1.23a1.6 1.6 0 0 0-1.599-1.599H3.731a1.6 1.6 0 0 0-1.599 1.599v15.992h-.533A1.6 1.6 0 0 0 0 24.56v2.132a1.6 1.6 0 0 0 1.599 1.599zM30.384 4.837a.533.533 0 0 1 0 1.066.533.533 0 0 1 0-1.066zM3.198 6.969c0-.294.239-.533.533-.533h21.323c.294 0 .533.239.533.533v2.239l-1.066 1.013V8.036a.534.534 0 0 0-.534-.534H4.798a.534.534 0 0 0-.534.533v13.327c0 .294.239.533.534.533h19.189a.534.534 0 0 0 .534-.533v-9.675l1.066-1.01V22.96H3.198V6.97zm4.798 6.93h-.005a1.6 1.6 0 1 0 1.112 2.748l1.853.93a.533.533 0 0 0 .636-.123l3.939-4.431 3.872 2.902a.534.534 0 0 0 .686-.039l3.365-3.188v8.131H5.331V8.568h18.123v2.661l-3.771 3.572-3.904-2.927a.534.534 0 0 0-.718.071v.001l-3.993 4.493-1.493-.746c.011-.064.017-.128.02-.193a1.6 1.6 0 0 0-1.599-1.599zm.533 1.599a.533.533 0 0 1-1.066 0 .533.533 0 0 1 1.066 0zm3.198 8.528h5.33v.533a.533.533 0 0 1-.533.533h-4.265a.533.533 0 0 1-.533-.533v-.533zm-10.66.534c0-.294.238-.533.533-.533h9.062v.533a1.6 1.6 0 0 0 1.599 1.599h4.265a1.6 1.6 0 0 0 1.599-1.599v-.533h9.062c.294 0 .533.239.533.533v2.132a.533.533 0 0 1-.533.533H1.601a.533.533 0 0 1-.533-.533V24.56z"/></symbol>
<symbol id="icon-Vector-5-2" viewBox="0 0 32 32"><path d="M29.935 13.626a2.036 2.036 0 0 0-1.353-.807l-.011-.001a2.03 2.03 0 0 0-1.541.407l.005-.003-1.438 1.101-2.178 1.626-1.558-.621c2.778-1.246 4.72-4.026 4.72-7.252 0-4.387-3.583-7.956-7.988-7.956s-7.988 3.57-7.988 7.957c0 1.59.476 3.069 1.285 4.313l-3.177-.028c-.01 0-.018.005-.027.005a.567.567 0 0 0-.182.038l.004-.001c-.015.005-.03.008-.044.015l-.022.007-3.71 1.831-.002.001-2.172 1.044a.512.512 0 0 0-.074.041l.002-.001a2.044 2.044 0 0 0-.681 2.646l-.005-.011c.252.486.68.852 1.197 1.016l.014.004a2.032 2.032 0 0 0 1.593-.153l-.011.005 1.593-.847 2.598-1.342 1.557-.009-6.245 6.214-.002.002-1.536 1.53c-.348.343-.563.82-.563 1.347v.006a1.914 1.914 0 0 0 1.913 1.91h.003c.491 0 .98-.186 1.354-.557l1.508-1.502 1.998-1.491 1.033 1.029-3.559 3.544c-.348.343-.563.82-.563 1.347v.005a1.909 1.909 0 0 0 1.913 1.91h.004c.491 0 .981-.186 1.354-.557l5.15-5.132c.008-.007.018-.01.026-.018l5.928-6.493 3.983.567a.62.62 0 0 0 .302-.038c.02-.007.037-.017.057-.027.022-.011.045-.017.066-.031l3.687-2.448c.014-.009.021-.024.034-.034.015-.012.033-.016.047-.029l1.458-1.367c.399-.374.647-.904.647-1.492 0-.459-.152-.883-.407-1.224l.004.005zM4.018 17.769a.812.812 0 0 1-.647.058l.006.002a.823.823 0 0 1-.246-1.443l.002-.002 1.508-.726.363 1.061.152.446-1.138.605zm4.013-2.097-1.777.918-.293-.857-.211-.616 2.326-1.148-.046 1.703zm17.328-7.597a6.661 6.661 0 0 1-.687 2.937l-4.798-2.18a2.137 2.137 0 0 0-.898-1.588l-.007-.004 1.68-5.578c2.728.868 4.71 3.413 4.71 6.413zm-13.528 0c0-3.712 3.034-6.733 6.764-6.733.29 0 .574.025.855.06l-1.644 5.454c-.022 0-.043-.006-.066-.006h-.001a2.148 2.148 0 0 0-2.148 2.142 2.148 2.148 0 0 0 2.148 2.142h.001c.797 0 1.486-.44 1.857-1.084l4.433 2.013a6.762 6.762 0 0 1-5.436 2.743c-3.73 0-6.764-3.021-6.764-6.733zm6.835.918a.923.923 0 0 1-.925.918h-.002a.923.923 0 0 1-.923-.918c0-.506.414-.918.924-.918s.925.412.925.918zM4.402 26.233a.696.696 0 0 1-.981.001.68.68 0 0 1 0-.968l1.104-1.1.978.973-1.1 1.095zm3.688 4.284a.696.696 0 0 1-.981.001.68.68 0 0 1 0-.968l1.105-1.101.977.973-1.101 1.096zm3.995-3.98-.002.002-2.025 2.02-.978-.973 2.025-2.016a.587.587 0 0 0 .103-.156c.008-.016.023-.029.03-.046.019-.047.022-.098.029-.147.004-.028.016-.055.016-.084 0-.04-.015-.08-.023-.121-.007-.037-.007-.074-.021-.11a.588.588 0 0 0-.105-.158c-.012-.014-.016-.03-.028-.044h-.001l-.001-.003-1.844-1.836c-.019-.019-.045-.027-.067-.044a.608.608 0 0 0-.097-.065l-.003-.002a.565.565 0 0 0-.103-.036l-.004-.001a.567.567 0 0 0-.116-.023h-.002l-.026-.001a.636.636 0 0 0-.087.006h.003a.533.533 0 0 0-.227.075c-.023.013-.049.017-.07.033l-2.035 1.519-1.033-1.03 2.753-2.738 5.004 4.922-1.064 1.054zm7.825-8.052c-.018-.003-.035.004-.052.003l-.031-.001a.603.603 0 0 0-.105.009l.004-.001a.562.562 0 0 0-.214.08l.002-.001a.646.646 0 0 0-.095.07c-.015.013-.033.019-.046.034l-5.391 5.905-4.967-4.884 3.251-3.234a.613.613 0 0 0-.434-1.046h-.002l-2.546.015.032-1.844 3.562.03a7.952 7.952 0 0 0 5.713 2.411h.004c.502 0 .991-.052 1.468-.141a.62.62 0 0 0 .148.097l2.766 1.102.175.87.205 1.016-3.446-.491zm4.638.205-.359-1.788 1.66-1.24 1.086 1.442-2.387 1.585zm4.307-3.249-.961.901-1.069-1.418.954-.731a.84.84 0 0 1 .623-.164.826.826 0 0 1 .713.815.82.82 0 0 1-.259.598z"/></symbol>
<symbol id="icon-Vector-7" viewBox="0 0 20 32"><path fill="#757575" style="fill:var(--color2, #757575)" d="M23 0H9C7.346 0 6 1.346 6 3v26c0 1.654 1.346 3 3 3h14c1.654 0 3-1.346 3-3V3c0-1.654-1.346-3-3-3zM9 2h14a1 1 0 0 1 1 1v21H8V3a1 1 0 0 1 1-1zm14 28H9a1 1 0 0 1-1-1v-3h16v3a1 1 0 0 1-1 1z"/></symbol></defs></svg>